<svg xmlns="http://www.w3.org/2000/svg" width="240" height="240" viewBox="0 0 240 240">
  <g transform="translate(0, 0)">
  <rect width="240" height="240" fill="#121212"/>
  <rect x="8" y="8" width="224" height="224" rx="8" fill="#1A1A1A"/>
  <rect x="16" y="16" width="208" height="36" rx="6" fill="#181614"/>
  <text x="28" y="40" font-family="system-ui, sans-serif" font-size="12" font-weight="600" fill="#E2E2E2">m57 (dark)</text>
  <rect x="16" y="60" width="208" height="72" rx="6" fill="#221F1B"/>
  <text x="28" y="82" font-family="system-ui, sans-serif" font-size="11" fill="#E2E2E2">Surface Text</text>
  <text x="28" y="98" font-family="system-ui, sans-serif" font-size="10" fill="#7E7367">Outline color</text>
  <rect x="28" y="108" width="72" height="18" rx="9" fill="#990000"/>
  <text x="64" y="120" font-family="system-ui, sans-serif" font-size="9" text-anchor="middle" fill="#FFECEC">Primary</text>
  <rect x="108" y="108" width="48" height="18" rx="4" fill="#B67612"/>
  <rect x="16" y="140" width="100" height="52" rx="6" fill="#181614"/>
  <rect x="24" y="148" width="84" height="36" rx="4" fill="#121212"/>
  <text x="66" y="170" font-family="system-ui, sans-serif" font-size="9" text-anchor="middle" fill="#E2E2E2">Background</text>
  <rect x="124" y="140" width="100" height="52" rx="6" fill="#181614"/>
  <circle cx="148" cy="166" r="9" fill="#FF6B6B"/>
  <circle cx="172" cy="166" r="9" fill="#E2A63B"/>
  <circle cx="196" cy="166" r="9" fill="#6C9FD4"/>
  <rect x="16" y="200" width="208" height="24" rx="4" fill="#C43737" opacity="0.15"/>
  <text x="120" y="216" font-family="system-ui, sans-serif" font-size="9" text-anchor="middle" fill="#E2E2E2">Surface Tint Overlay</text>
</g>
</svg>
